#!OML:ASF E:\Style4\Style4.ASF
:FULLY-SPECIFIED
:DEGREES
1523
root -0.274391 18.0274 -0.786464 5.58736 13.4404 1.12415
lowerback 7.93716 3.41933 0.169449
upperback 2.85004 4.56091 0.0605311
thorax -1.48404 2.27775 -0.444488
lowerneck -7.81763 -3.57284 -3.78557
upperneck -7.41121 -4.25719 5.32081
head -0.79705 -2.04134 2.24748
rclavicle -2.15681e-014 -1.19271e-014
rhumerus 48.3594 4.88496 -3.60164
rradius 88.2291
rwrist -98.7655
rhand -7.35876 17.6312
rfingers 7.12502
rthumb 18.5257 -11.5067
lclavicle -2.15681e-014 -1.19271e-014
lhumerus 52.0326 -5.6159 -0.032444
lradius 92.9074
lwrist 87.6294
lhand 5.39497 22.6311
lfingers 7.12502
lthumb 30.7466 50.0805
rfemur -13.1242 -4.88267 19.2598
rtibia 25.6327
rfoot -18.1292 -20.735
rtoes -8.21366
lfemur -17.9948 -5.16434 -18.0482
ltibia 24.9456
lfoot -12.8026 4.28132
ltoes -9.64006
1524
root -0.271103 18.0346 -0.787398 5.71996 13.4658 1.15202
lowerback 8.02133 3.45488 0.158416
upperback 2.78565 4.60659 0.0369072
thorax -1.59548 2.29979 -0.474961
lowerneck -7.76555 -3.58703 -3.85612
upperneck -7.53931 -4.26373 5.43442
head -0.842003 -2.0441 2.30053
rclavicle -1.98785e-014 1.23246e-014
rhumerus 48.7118 4.34878 -4.03736
rradius 87.2042
rwrist -98.4444
rhand -7.22695 17.6516
rfingers 7.12502
rthumb 18.6525 -11.4741
lclavicle -1.98785e-014 1.23246e-014
lhumerus 52.5274 -5.1222 0.363809
lradius 91.7746
lwrist 87.3954
lhand 5.36519 22.2201
lfingers 7.12502
lthumb 30.7182 49.6749
rfemur -13.1506 -4.86513 19.2295
rtibia 25.4258
rfoot -18.0539 -20.7639
rtoes -8.0422
lfemur -18.0592 -5.18756 -18.0793
ltibia 24.7919
lfoot -12.6951 4.34158
ltoes -9.60525
1525
root -0.267966 18.0397 -0.791655 5.8281 13.4898 1.07951
lowerback 8.10687 3.45736 0.231537
upperback 2.82504 4.61601 0.0662273
thorax -1.5986 2.30457 -0.490368
lowerneck -8.04222 -3.60187 -3.89256
upperneck -7.59186 -4.26977 5.4087
head -0.812231 -2.04195 2.29382
rclavicle 1.2921e-014 8.34896e-015
rhumerus 49.2405 3.66055 -4.4793
rradius 86.1469
rwrist -98.1078
rhand -6.95091 17.6536
rfingers 7.12502
rthumb 18.918 -11.4464
lclavicle 1.2921e-014 8.34896e-015
lhumerus 52.8793 -4.47223 0.939598
lradius 90.8512
lwrist 87.3644
lhand 5.00923 22.5434
lfingers 7.12502
lthumb 30.3788 50.0614
rfemur -13.2219 -4.80744 19.3075
rtibia 25.2847
rfoot -17.9304 -20.8844
rtoes -8.18293
lfemur -18.1414 -5.13652 -18.0063
ltibia 24.6468
lfoot -12.6256 4.29348
ltoes -9.55824
1526
root -0.26534 18.0428 -0.799454 5.92346 13.5368 1.05022
lowerback 8.24222 3.53434 0.278012
upperback 2.68131 4.72061 0.00851248
thorax -1.81207 2.35524 -0.600165
lowerneck -7.34975 -3.63602 -3.53973
upperneck -8.02705 -4.35104 5.27709
head -1.07326 -2.10191 2.20704
rclavicle -1.19271e-015 9.93923e-015
rhumerus 49.4281 3.28151 -4.94336
rradius 85.1135
rwrist -97.8693
rhand -6.64761 17.5479
rfingers 7.12502
rthumb 19.2097 -11.5234
lclavicle -1.19271e-015 9.93923e-015
lhumerus 53.4944 -4.1617 1.45744
lradius 89.9619
lwrist 87.2971
lhand 4.89613 22.7959
lfingers 7.12502
lthumb 30.2709 50.3337
rfemur -13.305 -4.74853 19.3392
rtibia 25.1931
rfoot -17.8306 -20.9992
rtoes -8.24966
lfemur -18.2253 -5.12552 -17.9749
ltibia 24.5013
lfoot -12.5188 4.27707
ltoes -9.60672
1527
root -0.262658 18.0483 -0.804982 6.05724 13.5427 1.08428
lowerback 8.38405 3.53784 0.287005
upperback 2.84106 4.72561 0.00239802
thorax -1.72397 2.35864 -0.614812
lowerneck -8.17116 -3.69689 -3.72555
upperneck -7.90688 -4.3921 5.38335
head -0.889729 -2.10566 2.25492
rclavicle -3.24019e-014 -1.70955e-014
rhumerus 50.0343 2.37153 -5.42039
rradius 84.0199
rwrist -97.5503
rhand -6.41195 17.4856
rfingers 7.12502
rthumb 19.4363 -11.563
lclavicle -3.24019e-014 -1.70955e-014
lhumerus 53.8842 -3.312 2.15872
lradius 88.7896
lwrist 86.8487
lhand 5.42283 22.6842
lfingers 7.12502
lthumb 30.7732 50.1286
rfemur -13.422 -4.75019 19.2965
rtibia 25.1092
rfoot -17.8683 -20.9548
rtoes -7.91184
lfemur -18.3408 -5.09864 -18.0214
ltibia 24.3994
lfoot -12.397 4.35627
ltoes -10.0115
1528
root -0.260003 18.0548 -0.809478 6.21238 13.4884 1.125
lowerback 8.45816 3.68277 0.244839
upperback 2.70135 4.91221 -0.0849674
thorax -1.90287 2.45012 -0.710259
lowerneck -7.54446 -3.76221 -3.44467
upperneck -8.25234 -4.50905 5.30031
head -1.10708 -2.18105 2.19426
rclavicle -2.09718e-014 1.63003e-014
rhumerus 50.0551 1.99401 -5.91297
rradius 83.0535
rwrist -97.3305
rhand -6.04537 17.377
rfingers 7.12502
rthumb 19.7887 -11.6356
lclavicle -2.09718e-014 1.63003e-014
lhumerus 54.6647 -3.03594 2.95406
lradius 87.6682
lwrist 86.4692
lhand 6.05539 23.08
lfingers 7.12502
lthumb 31.3761 50.4091
rfemur -13.5752 -4.68389 19.2478
rtibia 25.06
rfoot -17.966 -20.8928
rtoes -7.27329
lfemur -18.458 -5.07141 -18.0654
ltibia 24.3001
lfoot -12.3074 4.43081
ltoes -9.95363
